<svg width="744" height="205" viewBox="0 0 744 205" fill="none" xmlns="http://www.w3.org/2000/svg">
<path d="M275.681 97.3465C275.681 93.3241 275.681 89.3016 275.681 85.2792C275.681 81.2567 275.681 77.2343 275.681 73.2119C277.855 73.2119 280.029 73.2119 282.204 73.2119C284.487 73.2119 286.715 73.2119 288.89 73.2119C288.89 72.6683 288.89 72.1791 288.89 71.7442C288.89 71.3093 288.89 70.8745 288.89 70.4396C288.89 63.1557 290.357 57.0677 293.293 52.1756C296.337 47.1747 300.305 43.3697 305.197 40.7605C310.198 38.0427 315.633 36.5206 321.504 36.1945C327.483 35.7596 333.408 36.5206 339.279 38.4775C339.279 42.5 339.279 46.6311 339.279 50.871C339.279 55.1109 339.279 59.2964 339.279 63.4275C332.756 61.2532 327.212 60.8184 322.646 62.123C318.08 63.4275 315.796 66.2541 315.796 70.6027C315.796 71.0376 315.796 71.4724 315.796 71.9073C315.796 72.3421 315.796 72.777 315.796 73.2119C319.167 73.2119 322.537 73.2119 325.907 73.2119C329.277 73.2119 332.647 73.2119 336.017 73.2119C336.017 77.2343 336.017 81.2567 336.017 85.2792C336.017 89.3016 336.017 93.3241 336.017 97.3465C332.647 97.3465 329.277 97.3465 325.907 97.3465C322.537 97.3465 319.167 97.3465 315.796 97.3465C315.796 107.24 315.796 117.241 315.796 127.352C315.796 137.462 315.796 147.518 315.796 157.52C311.448 157.52 306.991 157.52 302.425 157.52C297.859 157.52 293.347 157.52 288.89 157.52C288.89 147.518 288.89 137.462 288.89 127.352C288.89 117.241 288.89 107.24 288.89 97.3465C286.715 97.3465 284.487 97.3465 282.204 97.3465C280.029 97.3465 277.855 97.3465 275.681 97.3465ZM364.186 63.5906C361.033 63.5906 358.152 62.8296 355.543 61.3076C353.042 59.7856 351.031 57.7744 349.509 55.2739C347.987 52.7735 347.226 50.0013 347.226 46.9573C347.226 43.9132 347.987 41.1954 349.509 38.8037C351.031 36.3032 353.042 34.292 355.543 32.77C358.152 31.248 361.033 30.487 364.186 30.487C367.23 30.487 370.002 31.248 372.502 32.77C375.111 34.292 377.177 36.3032 378.699 38.8037C380.221 41.1954 380.982 43.9132 380.982 46.9573C380.982 50.0013 380.221 52.7735 378.699 55.2739C377.177 57.7744 375.111 59.7856 372.502 61.3076C370.002 62.8296 367.23 63.5906 364.186 63.5906ZM350.651 157.52C350.651 143.605 350.651 129.58 350.651 115.448C350.651 101.206 350.651 87.1273 350.651 73.2119C355.108 73.2119 359.62 73.2119 364.186 73.2119C368.752 73.2119 373.209 73.2119 377.557 73.2119C377.557 87.1273 377.557 101.206 377.557 115.448C377.557 129.58 377.557 143.605 377.557 157.52C373.209 157.52 368.752 157.52 364.186 157.52C359.62 157.52 355.108 157.52 350.651 157.52ZM396.336 157.52C396.336 143.605 396.336 129.58 396.336 115.448C396.336 101.206 396.336 87.1273 396.336 73.2119C400.794 73.2119 405.305 73.2119 409.871 73.2119C414.437 73.2119 418.895 73.2119 423.243 73.2119C423.243 73.9728 423.243 74.6795 423.243 75.3318C423.243 75.9841 423.243 76.6907 423.243 77.4517C426.178 75.3861 429.44 73.8098 433.027 72.7226C436.724 71.5268 440.692 70.9288 444.932 70.9288C451.128 70.9288 456.564 72.3421 461.239 75.1687C466.022 77.9953 469.719 82.0721 472.328 87.3991C475.046 92.6174 476.405 98.9229 476.405 106.315C476.405 114.795 476.405 123.329 476.405 131.918C476.405 140.506 476.405 149.04 476.405 157.52C472.056 157.52 467.599 157.52 463.033 157.52C458.467 157.52 453.955 157.52 449.498 157.52C449.498 149.693 449.498 141.756 449.498 133.712C449.498 125.667 449.498 117.731 449.498 109.903C449.498 105.554 448.465 102.076 446.399 99.4664C444.442 96.7486 441.29 95.3896 436.941 95.3896C432.593 95.3896 429.222 96.6399 426.831 99.1403C424.439 101.641 423.243 105.228 423.243 109.903C423.243 117.731 423.243 125.667 423.243 133.712C423.243 141.756 423.243 149.693 423.243 157.52C418.895 157.52 414.437 157.52 409.871 157.52C405.305 157.52 400.794 157.52 396.336 157.52ZM549.261 157.52C549.261 156.65 549.261 155.835 549.261 155.074C549.261 154.204 549.261 153.389 549.261 152.628C546.543 154.911 543.445 156.65 539.966 157.846C536.596 159.151 532.954 159.803 529.04 159.803C523.495 159.803 518.277 158.716 513.385 156.542C508.493 154.367 504.144 151.323 500.339 147.41C496.643 143.387 493.708 138.658 491.533 133.222C489.468 127.787 488.435 121.807 488.435 115.284C488.435 108.653 489.468 102.619 491.533 97.1834C493.708 91.7477 496.643 87.073 500.339 83.1592C504.144 79.2455 508.493 76.2559 513.385 74.1903C518.277 72.016 523.441 70.9288 528.877 70.9288C532.791 70.9288 536.487 71.5811 539.966 72.8857C543.445 74.0816 546.543 75.7666 549.261 77.9409C549.261 71.4181 549.261 64.8408 549.261 58.2092C549.261 51.5776 549.261 45.0004 549.261 38.4775C553.718 38.4775 558.23 38.4775 562.796 38.4775C567.362 38.4775 571.819 38.4775 576.168 38.4775C576.168 58.1549 576.168 77.9953 576.168 97.9988C576.168 118.002 576.168 137.843 576.168 157.52C571.819 157.52 567.362 157.52 562.796 157.52C558.23 157.52 553.718 157.52 549.261 157.52ZM532.627 135.995C537.846 135.995 542.031 134.092 545.184 130.287C548.337 126.482 549.913 121.481 549.913 115.284C549.913 109.088 548.337 104.141 545.184 100.445C542.031 96.6399 537.846 94.7374 532.627 94.7374C527.3 94.7374 523.061 96.5855 519.908 100.282C516.864 103.978 515.342 108.979 515.342 115.284C515.342 121.59 516.864 126.645 519.908 130.45C523.061 134.146 527.3 135.995 532.627 135.995ZM667.488 153.606C659.987 156.759 652.54 158.716 645.147 159.477C637.755 160.238 630.742 159.803 624.111 158.172C617.588 156.65 611.772 153.987 606.662 150.182C601.553 146.377 597.53 141.539 594.595 135.668C591.768 129.798 590.355 123.003 590.355 115.284C590.355 108.87 591.388 103 593.453 97.6727C595.628 92.2369 598.672 87.5078 602.585 83.4854C606.499 79.3542 611.119 76.2015 616.446 74.0272C621.774 71.7442 627.59 70.6027 633.895 70.6027C639.548 70.6027 644.658 71.5268 649.224 73.3749C653.79 75.2231 657.758 77.8322 661.128 81.2024C664.498 84.4638 667.216 88.3775 669.282 92.9436C671.347 97.5096 672.652 102.51 673.196 107.946C673.739 113.382 673.413 119.144 672.217 125.232C663.303 125.232 654.334 125.232 645.31 125.232C636.287 125.232 627.318 125.232 618.403 125.232C620.469 129.363 623.893 132.298 628.677 134.038C633.569 135.777 639.331 136.321 645.963 135.668C652.703 135.016 659.878 133.277 667.488 130.45C667.488 134.255 667.488 138.115 667.488 142.028C667.488 145.942 667.488 149.801 667.488 153.606ZM633.243 94.7374C630.09 94.7374 627.155 95.6071 624.437 97.3465C621.828 99.0859 619.817 101.749 618.403 105.337C623.296 105.337 628.188 105.337 633.08 105.337C638.081 105.337 643.027 105.337 647.919 105.337C646.615 101.641 644.658 98.9772 642.049 97.3465C639.548 95.6071 636.613 94.7374 633.243 94.7374ZM687.445 157.52C687.445 143.605 687.445 129.58 687.445 115.448C687.445 101.206 687.445 87.1273 687.445 73.2119C691.903 73.2119 696.414 73.2119 700.98 73.2119C705.546 73.2119 710.004 73.2119 714.352 73.2119C714.352 73.9728 714.352 74.7339 714.352 75.4949C714.352 76.2559 714.352 77.0169 714.352 77.7779C717.722 75.3861 721.527 73.5923 725.767 72.3965C730.007 71.2006 734.627 70.8745 739.628 71.4181C739.628 75.7666 739.628 80.1696 739.628 84.6269C739.628 89.0842 739.628 93.4871 739.628 97.8357C731.04 96.6399 724.68 97.4009 720.549 100.119C716.418 102.728 714.352 107.022 714.352 113.001C714.352 120.285 714.352 127.678 714.352 135.179C714.352 142.681 714.352 150.127 714.352 157.52C710.004 157.52 705.546 157.52 700.98 157.52C696.414 157.52 691.903 157.52 687.445 157.52Z" fill="black"/>
<path d="M228.477 164.065C133.48 126.378 90.5374 115.418 52.191 123.142C53.5773 99.0733 146.382 -4.02284 253.66 16.1102C246.277 29.0059 234.747 41.162 229.952 52.5352C228.946 55.8766 222.666 75.0958 221.743 79.0705C214.695 124.474 227.648 162.775 228.477 164.065Z" fill="black"/>
<path d="M99.8862 150.437C95.7502 149.175 86.7672 147.835 86.7672 147.835C57.2898 142.136 28.4384 146.95 0.00014833 149.171C10.8544 146.286 23.375 141.639 34.0801 138.233C51.7178 132.621 74.4732 131.605 93.0629 133.502C107.98 135.024 124.019 137.7 138.258 142.277C167.509 151.679 195.302 164.507 224.359 174.565C233.716 177.804 243.386 180.079 253.01 182.343L253.011 182.343C262.22 184.51 280 186.207 280 186.207C280 186.207 260.225 187.156 258.334 187.156C241.758 187.156 224.578 184.526 208.355 181.406C192.295 178.317 176.536 173.074 160.768 168.727L129.395 158.351C124.191 156.333 113.392 153.673 113.392 153.673C108.952 152.282 99.8862 150.437 99.8862 150.437Z" fill="black"/>
</svg>
