<svg width="280" height="174" viewBox="0 0 280 174" fill="none" xmlns="http://www.w3.org/2000/svg">
<path d="M228.477 150.545C133.48 112.858 90.5374 101.898 52.191 109.622C53.5773 85.5533 146.382 -17.5429 253.66 2.59009C245.984 15.998 233.825 28.6065 229.413 40.3668C227.654 45.8151 222.913 60.5073 221.743 65.5504C214.695 110.954 227.648 149.255 228.477 150.545Z" fill="white"/>
<path d="M99.8862 136.917C95.7502 135.655 86.7672 134.314 86.7672 134.314C57.2898 128.616 28.4384 133.43 0.00014833 135.651C10.8544 132.766 23.375 128.119 34.0801 124.713C51.7178 119.101 74.4732 118.085 93.0629 119.982C107.98 121.504 124.019 124.18 138.258 128.757C167.509 138.159 195.302 150.987 224.359 161.045C233.716 164.284 243.386 166.559 253.01 168.823L253.011 168.823C262.22 170.99 280 172.687 280 172.687C280 172.687 260.225 173.636 258.334 173.636C241.758 173.636 224.578 171.006 208.355 167.886C192.295 164.797 176.536 159.554 160.768 155.206L129.395 144.831C124.191 142.813 113.392 140.153 113.392 140.153C108.952 138.762 99.8862 136.917 99.8862 136.917Z" fill="white"/>
</svg>
