<svg width="744" height="204" viewBox="0 0 744 204" fill="none" xmlns="http://www.w3.org/2000/svg">
<path d="M275.681 96.8264C275.681 92.804 275.681 88.7815 275.681 84.7591C275.681 80.7367 275.681 76.7142 275.681 72.6918C277.855 72.6918 280.029 72.6918 282.204 72.6918C284.487 72.6918 286.715 72.6918 288.89 72.6918C288.89 72.1482 288.89 71.659 288.89 71.2241C288.89 70.7893 288.89 70.3544 288.89 69.9195C288.89 62.6357 290.357 56.5476 293.293 51.6555C296.337 46.6546 300.305 42.8496 305.197 40.2404C310.198 37.5226 315.633 36.0006 321.504 35.6744C327.483 35.2396 333.408 36.0006 339.279 37.9574C339.279 41.9799 339.279 46.111 339.279 50.3509C339.279 54.5908 339.279 58.7763 339.279 62.9074C332.756 60.7332 327.212 60.2983 322.646 61.6029C318.08 62.9074 315.796 65.734 315.796 70.0826C315.796 70.5175 315.796 70.9523 315.796 71.3872C315.796 71.8221 315.796 72.2569 315.796 72.6918C319.167 72.6918 322.537 72.6918 325.907 72.6918C329.277 72.6918 332.647 72.6918 336.017 72.6918C336.017 76.7142 336.017 80.7367 336.017 84.7591C336.017 88.7815 336.017 92.804 336.017 96.8264C332.647 96.8264 329.277 96.8264 325.907 96.8264C322.537 96.8264 319.167 96.8264 315.796 96.8264C315.796 106.719 315.796 116.721 315.796 126.832C315.796 136.942 315.796 146.998 315.796 157C311.448 157 306.991 157 302.425 157C297.859 157 293.347 157 288.89 157C288.89 146.998 288.89 136.942 288.89 126.832C288.89 116.721 288.89 106.719 288.89 96.8264C286.715 96.8264 284.487 96.8264 282.204 96.8264C280.029 96.8264 277.855 96.8264 275.681 96.8264ZM364.186 63.0705C361.033 63.0705 358.152 62.3095 355.543 60.7875C353.042 59.2655 351.031 57.2543 349.509 54.7538C347.987 52.2534 347.226 49.4812 347.226 46.4372C347.226 43.3932 347.987 40.6753 349.509 38.2836C351.031 35.7831 353.042 33.7719 355.543 32.2499C358.152 30.7279 361.033 29.9669 364.186 29.9669C367.23 29.9669 370.002 30.7279 372.502 32.2499C375.111 33.7719 377.177 35.7831 378.699 38.2836C380.221 40.6753 380.982 43.3932 380.982 46.4372C380.982 49.4812 380.221 52.2534 378.699 54.7538C377.177 57.2543 375.111 59.2655 372.502 60.7875C370.002 62.3095 367.23 63.0705 364.186 63.0705ZM350.651 157C350.651 143.085 350.651 129.06 350.651 114.927C350.651 100.686 350.651 86.6072 350.651 72.6918C355.108 72.6918 359.62 72.6918 364.186 72.6918C368.752 72.6918 373.209 72.6918 377.557 72.6918C377.557 86.6072 377.557 100.686 377.557 114.927C377.557 129.06 377.557 143.085 377.557 157C373.209 157 368.752 157 364.186 157C359.62 157 355.108 157 350.651 157ZM396.336 157C396.336 143.085 396.336 129.06 396.336 114.927C396.336 100.686 396.336 86.6072 396.336 72.6918C400.794 72.6918 405.305 72.6918 409.871 72.6918C414.437 72.6918 418.895 72.6918 423.243 72.6918C423.243 73.4528 423.243 74.1594 423.243 74.8117C423.243 75.464 423.243 76.1706 423.243 76.9316C426.178 74.8661 429.44 73.2897 433.027 72.2026C436.724 71.0067 440.692 70.4088 444.932 70.4088C451.128 70.4088 456.564 71.8221 461.239 74.6486C466.022 77.4752 469.719 81.552 472.328 86.879C475.046 92.0973 476.405 98.4028 476.405 105.795C476.405 114.275 476.405 122.809 476.405 131.398C476.405 139.986 476.405 148.52 476.405 157C472.056 157 467.599 157 463.033 157C458.467 157 453.955 157 449.498 157C449.498 149.173 449.498 141.236 449.498 133.191C449.498 125.147 449.498 117.21 449.498 109.383C449.498 105.034 448.465 101.556 446.399 98.9464C444.442 96.2285 441.29 94.8696 436.941 94.8696C432.593 94.8696 429.222 96.1198 426.831 98.6202C424.439 101.121 423.243 104.708 423.243 109.383C423.243 117.21 423.243 125.147 423.243 133.191C423.243 141.236 423.243 149.173 423.243 157C418.895 157 414.437 157 409.871 157C405.305 157 400.794 157 396.336 157ZM549.261 157C549.261 156.13 549.261 155.315 549.261 154.554C549.261 153.684 549.261 152.869 549.261 152.108C546.543 154.391 543.445 156.13 539.966 157.326C536.596 158.631 532.954 159.283 529.04 159.283C523.495 159.283 518.277 158.196 513.385 156.022C508.493 153.847 504.144 150.803 500.339 146.89C496.643 142.867 493.708 138.138 491.533 132.702C489.468 127.267 488.435 121.287 488.435 114.764C488.435 108.133 489.468 102.099 491.533 96.6634C493.708 91.2276 496.643 86.5529 500.339 82.6392C504.144 78.7254 508.493 75.7358 513.385 73.6702C518.277 71.4959 523.441 70.4088 528.877 70.4088C532.791 70.4088 536.487 71.061 539.966 72.3656C543.445 73.5615 546.543 75.2466 549.261 77.4209C549.261 70.898 549.261 64.3207 549.261 57.6891C549.261 51.0575 549.261 44.4803 549.261 37.9574C553.718 37.9574 558.23 37.9574 562.796 37.9574C567.362 37.9574 571.819 37.9574 576.168 37.9574C576.168 57.6348 576.168 77.4752 576.168 97.4787C576.168 117.482 576.168 137.323 576.168 157C571.819 157 567.362 157 562.796 157C558.23 157 553.718 157 549.261 157ZM532.627 135.474C537.846 135.474 542.031 133.572 545.184 129.767C548.337 125.962 549.913 120.961 549.913 114.764C549.913 108.568 548.337 103.621 545.184 99.9248C542.031 96.1198 537.846 94.2173 532.627 94.2173C527.3 94.2173 523.061 96.0654 519.908 99.7617C516.864 103.458 515.342 108.459 515.342 114.764C515.342 121.07 516.864 126.125 519.908 129.93C523.061 133.626 527.3 135.474 532.627 135.474ZM667.488 153.086C659.987 156.239 652.54 158.196 645.147 158.957C637.755 159.718 630.742 159.283 624.111 157.652C617.588 156.13 611.772 153.467 606.662 149.662C601.553 145.857 597.53 141.019 594.595 135.148C591.768 129.278 590.355 122.483 590.355 114.764C590.355 108.35 591.388 102.48 593.453 97.1526C595.628 91.7168 598.672 86.9877 602.585 82.9653C606.499 78.8341 611.119 75.6814 616.446 73.5071C621.774 71.2241 627.59 70.0826 633.895 70.0826C639.548 70.0826 644.658 71.0067 649.224 72.8548C653.79 74.703 657.758 77.3121 661.128 80.6823C664.498 83.9437 667.216 87.8575 669.282 92.4235C671.347 96.9895 672.652 101.99 673.196 107.426C673.739 112.862 673.413 118.624 672.217 124.712C663.303 124.712 654.334 124.712 645.31 124.712C636.287 124.712 627.318 124.712 618.403 124.712C620.469 128.843 623.893 131.778 628.677 133.518C633.569 135.257 639.331 135.801 645.963 135.148C652.703 134.496 659.878 132.757 667.488 129.93C667.488 133.735 667.488 137.594 667.488 141.508C667.488 145.422 667.488 149.281 667.488 153.086ZM633.243 94.2173C630.09 94.2173 627.155 95.087 624.437 96.8264C621.828 98.5659 619.817 101.229 618.403 104.817C623.296 104.817 628.188 104.817 633.08 104.817C638.081 104.817 643.027 104.817 647.919 104.817C646.615 101.121 644.658 98.4571 642.049 96.8264C639.548 95.087 636.613 94.2173 633.243 94.2173ZM687.445 157C687.445 143.085 687.445 129.06 687.445 114.927C687.445 100.686 687.445 86.6072 687.445 72.6918C691.903 72.6918 696.414 72.6918 700.98 72.6918C705.546 72.6918 710.004 72.6918 714.352 72.6918C714.352 73.4528 714.352 74.2138 714.352 74.9748C714.352 75.7358 714.352 76.4968 714.352 77.2578C717.722 74.8661 721.527 73.0723 725.767 71.8764C730.007 70.6805 734.627 70.3544 739.628 70.898C739.628 75.2466 739.628 79.6495 739.628 84.1068C739.628 88.5641 739.628 92.9671 739.628 97.3156C731.04 96.1198 724.68 96.8808 720.549 99.5986C716.418 102.208 714.352 106.502 714.352 112.481C714.352 119.765 714.352 127.158 714.352 134.659C714.352 142.16 714.352 149.607 714.352 157C710.004 157 705.546 157 700.98 157C696.414 157 691.903 157 687.445 157Z" fill="white"/>
<path d="M228.477 165.545C133.48 127.858 90.5374 116.898 52.191 124.622C53.5773 100.553 146.382 -2.54292 253.66 17.5901C245.984 30.998 233.825 43.6065 229.413 55.3668C227.654 60.8151 222.913 75.5073 221.743 80.5504C214.695 125.954 227.648 164.255 228.477 165.545Z" fill="white"/>
<path d="M99.8862 151.917C95.7502 150.655 86.7672 149.314 86.7672 149.314C57.2898 143.616 28.4384 148.43 0.00014833 150.651C10.8544 147.766 23.375 143.119 34.0801 139.713C51.7178 134.101 74.4732 133.085 93.0629 134.982C107.98 136.504 124.019 139.18 138.258 143.757C167.509 153.159 195.302 165.987 224.359 176.045C233.716 179.284 243.386 181.559 253.01 183.823L253.011 183.823C262.22 185.99 280 187.687 280 187.687C280 187.687 260.225 188.636 258.334 188.636C241.758 188.636 224.578 186.006 208.355 182.886C192.295 179.797 176.536 174.554 160.768 170.206L129.395 159.831C124.191 157.813 113.392 155.153 113.392 155.153C108.952 153.762 99.8862 151.917 99.8862 151.917Z" fill="white"/>
</svg>
