<svg width="744" height="205" viewBox="0 0 744 205" fill="none" xmlns="http://www.w3.org/2000/svg">
<path d="M228.477 164.545C133.48 126.858 90.5374 115.898 52.191 123.622C53.5773 99.5533 146.382 -3.54292 253.66 16.5901C245.984 29.998 233.825 42.6065 229.413 54.3668C227.654 59.8151 222.913 74.5073 221.743 79.5504C214.695 124.954 227.648 163.255 228.477 164.545Z" fill="url(#paint0_linear_19_270)"/>
<path d="M99.8862 150.757C95.7502 149.495 86.7672 148.155 86.7672 148.155C57.2898 142.456 28.4384 147.27 0.00014833 149.491C10.8544 146.606 23.375 141.959 34.0801 138.553C51.7178 132.941 74.4732 131.925 93.0629 133.822C107.98 135.344 124.019 138.02 138.258 142.597C167.509 151.999 195.302 164.827 224.359 174.885C233.716 178.124 243.386 180.399 253.01 182.663L253.011 182.663C262.22 184.83 280 186.527 280 186.527C280 186.527 260.225 187.476 258.334 187.476C241.758 187.476 224.578 184.846 208.355 181.726C192.295 178.637 176.536 173.394 160.768 169.046L129.395 158.671C124.191 156.653 113.392 153.993 113.392 153.993C108.952 152.602 99.8862 150.757 99.8862 150.757Z" fill="url(#paint1_linear_19_270)"/>
<path d="M99.8862 150.757C95.7502 149.495 86.7672 148.155 86.7672 148.155C57.2898 142.456 28.4384 147.27 0.00014833 149.491C10.8544 146.606 23.375 141.959 34.0801 138.553C51.7178 132.941 74.4732 131.925 93.0629 133.822C107.98 135.344 124.019 138.02 138.258 142.597C167.509 151.999 195.302 164.827 224.359 174.885C233.716 178.124 243.386 180.399 253.01 182.663L253.011 182.663C262.22 184.83 280 186.527 280 186.527C280 186.527 260.225 187.476 258.334 187.476C241.758 187.476 224.578 184.846 208.355 181.726C192.295 178.637 176.536 173.394 160.768 169.046L129.395 158.671C124.191 156.653 113.392 153.993 113.392 153.993C108.952 152.602 99.8862 150.757 99.8862 150.757Z" fill="url(#paint2_linear_19_270)"/>
<path d="M275.681 97.6665C275.681 93.644 275.681 89.6216 275.681 85.5991C275.681 81.5767 275.681 77.5542 275.681 73.5318C277.855 73.5318 280.029 73.5318 282.204 73.5318C284.487 73.5318 286.715 73.5318 288.89 73.5318C288.89 72.9882 288.89 72.499 288.89 72.0641C288.89 71.6293 288.89 71.1944 288.89 70.7596C288.89 63.4757 290.357 57.3877 293.293 52.4955C296.337 47.4946 300.305 43.6896 305.197 41.0805C310.198 38.3626 315.633 36.8406 321.504 36.5145C327.483 36.0796 333.408 36.8406 339.279 38.7975C339.279 42.8199 339.279 46.9511 339.279 51.1909C339.279 55.4308 339.279 59.6163 339.279 63.7475C332.756 61.5732 327.212 61.1383 322.646 62.4429C318.08 63.7475 315.796 66.5741 315.796 70.9226C315.796 71.3575 315.796 71.7924 315.796 72.2272C315.796 72.6621 315.796 73.0969 315.796 73.5318C319.167 73.5318 322.537 73.5318 325.907 73.5318C329.277 73.5318 332.647 73.5318 336.017 73.5318C336.017 77.5542 336.017 81.5767 336.017 85.5991C336.017 89.6216 336.017 93.644 336.017 97.6665C332.647 97.6665 329.277 97.6665 325.907 97.6665C322.537 97.6665 319.167 97.6665 315.796 97.6665C315.796 107.559 315.796 117.561 315.796 127.672C315.796 137.782 315.796 147.838 315.796 157.84C311.448 157.84 306.991 157.84 302.425 157.84C297.859 157.84 293.347 157.84 288.89 157.84C288.89 147.838 288.89 137.782 288.89 127.672C288.89 117.561 288.89 107.559 288.89 97.6665C286.715 97.6665 284.487 97.6665 282.204 97.6665C280.029 97.6665 277.855 97.6665 275.681 97.6665ZM364.186 63.9105C361.033 63.9105 358.152 63.1495 355.543 61.6275C353.042 60.1055 351.031 58.0943 349.509 55.5939C347.987 53.0934 347.226 50.3212 347.226 47.2772C347.226 44.2332 347.987 41.5153 349.509 39.1236C351.031 36.6232 353.042 34.6119 355.543 33.0899C358.152 31.5679 361.033 30.8069 364.186 30.8069C367.23 30.8069 370.002 31.5679 372.502 33.0899C375.111 34.6119 377.177 36.6232 378.699 39.1236C380.221 41.5153 380.982 44.2332 380.982 47.2772C380.982 50.3212 380.221 53.0934 378.699 55.5939C377.177 58.0943 375.111 60.1055 372.502 61.6275C370.002 63.1495 367.23 63.9105 364.186 63.9105ZM350.651 157.84C350.651 143.925 350.651 129.9 350.651 115.767C350.651 101.526 350.651 87.4473 350.651 73.5318C355.108 73.5318 359.62 73.5318 364.186 73.5318C368.752 73.5318 373.209 73.5318 377.557 73.5318C377.557 87.4473 377.557 101.526 377.557 115.767C377.557 129.9 377.557 143.925 377.557 157.84C373.209 157.84 368.752 157.84 364.186 157.84C359.62 157.84 355.108 157.84 350.651 157.84ZM396.336 157.84C396.336 143.925 396.336 129.9 396.336 115.767C396.336 101.526 396.336 87.4473 396.336 73.5318C400.794 73.5318 405.305 73.5318 409.871 73.5318C414.437 73.5318 418.895 73.5318 423.243 73.5318C423.243 74.2928 423.243 74.9994 423.243 75.6517C423.243 76.304 423.243 77.0107 423.243 77.7717C426.178 75.7061 429.44 74.1297 433.027 73.0426C436.724 71.8467 440.692 71.2488 444.932 71.2488C451.128 71.2488 456.564 72.6621 461.239 75.4887C466.022 78.3152 469.719 82.392 472.328 87.7191C475.046 92.9374 476.405 99.2428 476.405 106.635C476.405 115.115 476.405 123.649 476.405 132.238C476.405 140.826 476.405 149.36 476.405 157.84C472.056 157.84 467.599 157.84 463.033 157.84C458.467 157.84 453.955 157.84 449.498 157.84C449.498 150.013 449.498 142.076 449.498 134.032C449.498 125.987 449.498 118.05 449.498 110.223C449.498 105.874 448.465 102.396 446.399 99.7864C444.442 97.0685 441.29 95.7096 436.941 95.7096C432.593 95.7096 429.222 96.9598 426.831 99.4602C424.439 101.961 423.243 105.548 423.243 110.223C423.243 118.05 423.243 125.987 423.243 134.032C423.243 142.076 423.243 150.013 423.243 157.84C418.895 157.84 414.437 157.84 409.871 157.84C405.305 157.84 400.794 157.84 396.336 157.84Z" fill="url(#paint3_linear_19_270)"/>
<path d="M275.681 97.6665C275.681 93.644 275.681 89.6216 275.681 85.5991C275.681 81.5767 275.681 77.5542 275.681 73.5318C277.855 73.5318 280.029 73.5318 282.204 73.5318C284.487 73.5318 286.715 73.5318 288.89 73.5318C288.89 72.9882 288.89 72.499 288.89 72.0641C288.89 71.6293 288.89 71.1944 288.89 70.7596C288.89 63.4757 290.357 57.3877 293.293 52.4955C296.337 47.4946 300.305 43.6896 305.197 41.0805C310.198 38.3626 315.633 36.8406 321.504 36.5145C327.483 36.0796 333.408 36.8406 339.279 38.7975C339.279 42.8199 339.279 46.9511 339.279 51.1909C339.279 55.4308 339.279 59.6163 339.279 63.7475C332.756 61.5732 327.212 61.1383 322.646 62.4429C318.08 63.7475 315.796 66.5741 315.796 70.9226C315.796 71.3575 315.796 71.7924 315.796 72.2272C315.796 72.6621 315.796 73.0969 315.796 73.5318C319.167 73.5318 322.537 73.5318 325.907 73.5318C329.277 73.5318 332.647 73.5318 336.017 73.5318C336.017 77.5542 336.017 81.5767 336.017 85.5991C336.017 89.6216 336.017 93.644 336.017 97.6665C332.647 97.6665 329.277 97.6665 325.907 97.6665C322.537 97.6665 319.167 97.6665 315.796 97.6665C315.796 107.559 315.796 117.561 315.796 127.672C315.796 137.782 315.796 147.838 315.796 157.84C311.448 157.84 306.991 157.84 302.425 157.84C297.859 157.84 293.347 157.84 288.89 157.84C288.89 147.838 288.89 137.782 288.89 127.672C288.89 117.561 288.89 107.559 288.89 97.6665C286.715 97.6665 284.487 97.6665 282.204 97.6665C280.029 97.6665 277.855 97.6665 275.681 97.6665ZM364.186 63.9105C361.033 63.9105 358.152 63.1495 355.543 61.6275C353.042 60.1055 351.031 58.0943 349.509 55.5939C347.987 53.0934 347.226 50.3212 347.226 47.2772C347.226 44.2332 347.987 41.5153 349.509 39.1236C351.031 36.6232 353.042 34.6119 355.543 33.0899C358.152 31.5679 361.033 30.8069 364.186 30.8069C367.23 30.8069 370.002 31.5679 372.502 33.0899C375.111 34.6119 377.177 36.6232 378.699 39.1236C380.221 41.5153 380.982 44.2332 380.982 47.2772C380.982 50.3212 380.221 53.0934 378.699 55.5939C377.177 58.0943 375.111 60.1055 372.502 61.6275C370.002 63.1495 367.23 63.9105 364.186 63.9105ZM350.651 157.84C350.651 143.925 350.651 129.9 350.651 115.767C350.651 101.526 350.651 87.4473 350.651 73.5318C355.108 73.5318 359.62 73.5318 364.186 73.5318C368.752 73.5318 373.209 73.5318 377.557 73.5318C377.557 87.4473 377.557 101.526 377.557 115.767C377.557 129.9 377.557 143.925 377.557 157.84C373.209 157.84 368.752 157.84 364.186 157.84C359.62 157.84 355.108 157.84 350.651 157.84ZM396.336 157.84C396.336 143.925 396.336 129.9 396.336 115.767C396.336 101.526 396.336 87.4473 396.336 73.5318C400.794 73.5318 405.305 73.5318 409.871 73.5318C414.437 73.5318 418.895 73.5318 423.243 73.5318C423.243 74.2928 423.243 74.9994 423.243 75.6517C423.243 76.304 423.243 77.0107 423.243 77.7717C426.178 75.7061 429.44 74.1297 433.027 73.0426C436.724 71.8467 440.692 71.2488 444.932 71.2488C451.128 71.2488 456.564 72.6621 461.239 75.4887C466.022 78.3152 469.719 82.392 472.328 87.7191C475.046 92.9374 476.405 99.2428 476.405 106.635C476.405 115.115 476.405 123.649 476.405 132.238C476.405 140.826 476.405 149.36 476.405 157.84C472.056 157.84 467.599 157.84 463.033 157.84C458.467 157.84 453.955 157.84 449.498 157.84C449.498 150.013 449.498 142.076 449.498 134.032C449.498 125.987 449.498 118.05 449.498 110.223C449.498 105.874 448.465 102.396 446.399 99.7864C444.442 97.0685 441.29 95.7096 436.941 95.7096C432.593 95.7096 429.222 96.9598 426.831 99.4602C424.439 101.961 423.243 105.548 423.243 110.223C423.243 118.05 423.243 125.987 423.243 134.032C423.243 142.076 423.243 150.013 423.243 157.84C418.895 157.84 414.437 157.84 409.871 157.84C405.305 157.84 400.794 157.84 396.336 157.84Z" fill="url(#paint4_linear_19_270)"/>
<path d="M549.261 157.84C549.261 156.97 549.261 156.155 549.261 155.394C549.261 154.524 549.261 153.709 549.261 152.948C546.543 155.231 543.445 156.97 539.966 158.166C536.596 159.471 532.954 160.123 529.04 160.123C523.495 160.123 518.277 159.036 513.385 156.862C508.493 154.687 504.144 151.643 500.339 147.73C496.643 143.707 493.708 138.978 491.533 133.542C489.468 128.107 488.435 122.127 488.435 115.604C488.435 108.973 489.468 102.939 491.533 97.5034C493.708 92.0676 496.643 87.3929 500.339 83.4792C504.144 79.5655 508.493 76.5758 513.385 74.5102C518.277 72.3359 523.441 71.2488 528.877 71.2488C532.791 71.2488 536.487 71.9011 539.966 73.2056C543.445 74.4015 546.543 76.0866 549.261 78.2609C549.261 71.738 549.261 65.1608 549.261 58.5292C549.261 51.8976 549.261 45.3203 549.261 38.7975C553.718 38.7975 558.23 38.7975 562.796 38.7975C567.362 38.7975 571.819 38.7975 576.168 38.7975C576.168 58.4748 576.168 78.3152 576.168 98.3187C576.168 118.322 576.168 138.163 576.168 157.84C571.819 157.84 567.362 157.84 562.796 157.84C558.23 157.84 553.718 157.84 549.261 157.84ZM532.627 136.315C537.846 136.315 542.031 134.412 545.184 130.607C548.337 126.802 549.913 121.801 549.913 115.604C549.913 109.408 548.337 104.461 545.184 100.765C542.031 96.9598 537.846 95.0573 532.627 95.0573C527.3 95.0573 523.061 96.9055 519.908 100.602C516.864 104.298 515.342 109.299 515.342 115.604C515.342 121.91 516.864 126.965 519.908 130.77C523.061 134.466 527.3 136.315 532.627 136.315ZM667.488 153.926C659.987 157.079 652.54 159.036 645.147 159.797C637.755 160.558 630.742 160.123 624.111 158.492C617.588 156.97 611.772 154.307 606.662 150.502C601.553 146.697 597.53 141.859 594.595 135.988C591.768 130.118 590.355 123.323 590.355 115.604C590.355 109.19 591.388 103.32 593.453 97.9926C595.628 92.5569 598.672 87.8278 602.585 83.8053C606.499 79.6742 611.119 76.5215 616.446 74.3472C621.774 72.0641 627.59 70.9226 633.895 70.9226C639.548 70.9226 644.658 71.8467 649.224 73.6949C653.79 75.543 657.758 78.1522 661.128 81.5223C664.498 84.7838 667.216 88.6975 669.282 93.2635C671.347 97.8295 672.652 102.83 673.196 108.266C673.739 113.702 673.413 119.464 672.217 125.552C663.303 125.552 654.334 125.552 645.31 125.552C636.287 125.552 627.318 125.552 618.403 125.552C620.469 129.683 623.893 132.618 628.677 134.358C633.569 136.097 639.331 136.641 645.963 135.988C652.703 135.336 659.878 133.597 667.488 130.77C667.488 134.575 667.488 138.434 667.488 142.348C667.488 146.262 667.488 150.121 667.488 153.926ZM633.243 95.0573C630.09 95.0573 627.155 95.927 624.437 97.6665C621.828 99.4059 619.817 102.069 618.403 105.657C623.296 105.657 628.188 105.657 633.08 105.657C638.081 105.657 643.027 105.657 647.919 105.657C646.615 101.961 644.658 99.2972 642.049 97.6665C639.548 95.927 636.613 95.0573 633.243 95.0573ZM687.445 157.84C687.445 143.925 687.445 129.9 687.445 115.767C687.445 101.526 687.445 87.4473 687.445 73.5318C691.903 73.5318 696.414 73.5318 700.98 73.5318C705.546 73.5318 710.004 73.5318 714.352 73.5318C714.352 74.2928 714.352 75.0538 714.352 75.8148C714.352 76.5758 714.352 77.3368 714.352 78.0978C717.722 75.7061 721.527 73.9123 725.767 72.7164C730.007 71.5206 734.627 71.1944 739.628 71.738C739.628 76.0866 739.628 80.4895 739.628 84.9468C739.628 89.4041 739.628 93.8071 739.628 98.1557C731.04 96.9598 724.68 97.7208 720.549 100.439C716.418 103.048 714.352 107.342 714.352 113.321C714.352 120.605 714.352 127.998 714.352 135.499C714.352 143 714.352 150.447 714.352 157.84C710.004 157.84 705.546 157.84 700.98 157.84C696.414 157.84 691.903 157.84 687.445 157.84Z" fill="white" fill-opacity="0.3"/>
<defs>
<linearGradient id="paint0_linear_19_270" x1="149.778" y1="14.2932" x2="149.778" y2="164.544" gradientUnits="userSpaceOnUse">
<stop stop-color="#6DFF8D"/>
<stop offset="0.839014" stop-color="#2589FF"/>
</linearGradient>
<linearGradient id="paint1_linear_19_270" x1="140" y1="132.947" x2="140" y2="187.476" gradientUnits="userSpaceOnUse">
<stop stop-color="white"/>
<stop offset="1" stop-color="#999999"/>
</linearGradient>
<linearGradient id="paint2_linear_19_270" x1="140" y1="132.947" x2="140" y2="187.476" gradientUnits="userSpaceOnUse">
<stop stop-color="#2589FF" stop-opacity="0.972549"/>
<stop offset="1" stop-color="#0059C1"/>
</linearGradient>
<linearGradient id="paint3_linear_19_270" x1="506.964" y1="0.840027" x2="506.964" y2="204.68" gradientUnits="userSpaceOnUse">
<stop stop-color="white"/>
<stop offset="1" stop-color="#999999"/>
</linearGradient>
<linearGradient id="paint4_linear_19_270" x1="506.964" y1="0.840027" x2="506.964" y2="204.68" gradientUnits="userSpaceOnUse">
<stop stop-color="#6DFF8D"/>
<stop offset="0.745" stop-color="#0059C1"/>
</linearGradient>
</defs>
</svg>
