<svg width="744" height="205" viewBox="0 0 744 205" fill="none" xmlns="http://www.w3.org/2000/svg">
<path d="M228.477 164.545C133.48 126.858 90.5374 115.898 52.191 123.622C53.5773 99.5533 146.382 -3.54292 253.66 16.5901C245.984 29.998 233.825 42.6065 229.413 54.3668C227.654 59.8151 222.913 74.5073 221.743 79.5504C214.695 124.954 227.648 163.255 228.477 164.545Z" fill="url(#paint0_linear_19_283)"/>
<path d="M228.477 164.545C133.48 126.858 90.5374 115.898 52.191 123.622C53.5773 99.5533 146.382 -3.54292 253.66 16.5901C245.984 29.998 233.825 42.6065 229.413 54.3668C227.654 59.8151 222.913 74.5073 221.743 79.5504C214.695 124.954 227.648 163.255 228.477 164.545Z" fill="url(#paint1_linear_19_283)"/>
<path d="M99.8862 150.917C95.7502 149.655 86.7672 148.314 86.7672 148.314C57.2898 142.616 28.4384 147.43 0.00014833 149.651C10.8544 146.766 23.375 142.119 34.0801 138.713C51.7178 133.101 74.4732 132.085 93.0629 133.982C107.98 135.504 124.019 138.18 138.258 142.757C167.509 152.159 195.302 164.987 224.359 175.045C233.716 178.284 243.386 180.559 253.01 182.823L253.011 182.823C262.22 184.99 280 186.687 280 186.687C280 186.687 260.225 187.636 258.334 187.636C241.758 187.636 224.578 185.006 208.355 181.886C192.295 178.797 176.536 173.554 160.768 169.206L129.395 158.831C124.191 156.813 113.392 154.153 113.392 154.153C108.952 152.762 99.8862 150.917 99.8862 150.917Z" fill="url(#paint2_linear_19_283)"/>
<path d="M99.8862 150.917C95.7502 149.655 86.7672 148.314 86.7672 148.314C57.2898 142.616 28.4384 147.43 0.00014833 149.651C10.8544 146.766 23.375 142.119 34.0801 138.713C51.7178 133.101 74.4732 132.085 93.0629 133.982C107.98 135.504 124.019 138.18 138.258 142.757C167.509 152.159 195.302 164.987 224.359 175.045C233.716 178.284 243.386 180.559 253.01 182.823L253.011 182.823C262.22 184.99 280 186.687 280 186.687C280 186.687 260.225 187.636 258.334 187.636C241.758 187.636 224.578 185.006 208.355 181.886C192.295 178.797 176.536 173.554 160.768 169.206L129.395 158.831C124.191 156.813 113.392 154.153 113.392 154.153C108.952 152.762 99.8862 150.917 99.8862 150.917Z" fill="url(#paint3_linear_19_283)"/>
<path d="M275.681 97.8264C275.681 93.804 275.681 89.7815 275.681 85.7591C275.681 81.7367 275.681 77.7142 275.681 73.6918C277.855 73.6918 280.029 73.6918 282.204 73.6918C284.487 73.6918 286.715 73.6918 288.89 73.6918C288.89 73.1482 288.89 72.659 288.89 72.2241C288.89 71.7893 288.89 71.3544 288.89 70.9195C288.89 63.6357 290.357 57.5476 293.293 52.6555C296.337 47.6546 300.305 43.8496 305.197 41.2404C310.198 38.5226 315.633 37.0006 321.504 36.6744C327.483 36.2396 333.408 37.0006 339.279 38.9574C339.279 42.9799 339.279 47.111 339.279 51.3509C339.279 55.5908 339.279 59.7763 339.279 63.9074C332.756 61.7332 327.212 61.2983 322.646 62.6029C318.08 63.9074 315.796 66.734 315.796 71.0826C315.796 71.5175 315.796 71.9523 315.796 72.3872C315.796 72.8221 315.796 73.2569 315.796 73.6918C319.167 73.6918 322.537 73.6918 325.907 73.6918C329.277 73.6918 332.647 73.6918 336.017 73.6918C336.017 77.7142 336.017 81.7367 336.017 85.7591C336.017 89.7815 336.017 93.804 336.017 97.8264C332.647 97.8264 329.277 97.8264 325.907 97.8264C322.537 97.8264 319.167 97.8264 315.796 97.8264C315.796 107.719 315.796 117.721 315.796 127.832C315.796 137.942 315.796 147.998 315.796 158C311.448 158 306.991 158 302.425 158C297.859 158 293.347 158 288.89 158C288.89 147.998 288.89 137.942 288.89 127.832C288.89 117.721 288.89 107.719 288.89 97.8264C286.715 97.8264 284.487 97.8264 282.204 97.8264C280.029 97.8264 277.855 97.8264 275.681 97.8264ZM364.186 64.0705C361.033 64.0705 358.152 63.3095 355.543 61.7875C353.042 60.2655 351.031 58.2543 349.509 55.7538C347.987 53.2534 347.226 50.4812 347.226 47.4372C347.226 44.3932 347.987 41.6753 349.509 39.2836C351.031 36.7831 353.042 34.7719 355.543 33.2499C358.152 31.7279 361.033 30.9669 364.186 30.9669C367.23 30.9669 370.002 31.7279 372.502 33.2499C375.111 34.7719 377.177 36.7831 378.699 39.2836C380.221 41.6753 380.982 44.3932 380.982 47.4372C380.982 50.4812 380.221 53.2534 378.699 55.7538C377.177 58.2543 375.111 60.2655 372.502 61.7875C370.002 63.3095 367.23 64.0705 364.186 64.0705ZM350.651 158C350.651 144.085 350.651 130.06 350.651 115.927C350.651 101.686 350.651 87.6072 350.651 73.6918C355.108 73.6918 359.62 73.6918 364.186 73.6918C368.752 73.6918 373.209 73.6918 377.557 73.6918C377.557 87.6072 377.557 101.686 377.557 115.927C377.557 130.06 377.557 144.085 377.557 158C373.209 158 368.752 158 364.186 158C359.62 158 355.108 158 350.651 158ZM396.336 158C396.336 144.085 396.336 130.06 396.336 115.927C396.336 101.686 396.336 87.6072 396.336 73.6918C400.794 73.6918 405.305 73.6918 409.871 73.6918C414.437 73.6918 418.895 73.6918 423.243 73.6918C423.243 74.4528 423.243 75.1594 423.243 75.8117C423.243 76.464 423.243 77.1706 423.243 77.9316C426.178 75.8661 429.44 74.2897 433.027 73.2026C436.724 72.0067 440.692 71.4088 444.932 71.4088C451.128 71.4088 456.564 72.8221 461.239 75.6486C466.022 78.4752 469.719 82.552 472.328 87.879C475.046 93.0973 476.405 99.4028 476.405 106.795C476.405 115.275 476.405 123.809 476.405 132.398C476.405 140.986 476.405 149.52 476.405 158C472.056 158 467.599 158 463.033 158C458.467 158 453.955 158 449.498 158C449.498 150.173 449.498 142.236 449.498 134.191C449.498 126.147 449.498 118.21 449.498 110.383C449.498 106.034 448.465 102.556 446.399 99.9464C444.442 97.2285 441.29 95.8696 436.941 95.8696C432.593 95.8696 429.222 97.1198 426.831 99.6202C424.439 102.121 423.243 105.708 423.243 110.383C423.243 118.21 423.243 126.147 423.243 134.191C423.243 142.236 423.243 150.173 423.243 158C418.895 158 414.437 158 409.871 158C405.305 158 400.794 158 396.336 158ZM549.261 158C549.261 157.13 549.261 156.315 549.261 155.554C549.261 154.684 549.261 153.869 549.261 153.108C546.543 155.391 543.445 157.13 539.966 158.326C536.596 159.631 532.954 160.283 529.04 160.283C523.495 160.283 518.277 159.196 513.385 157.022C508.493 154.847 504.144 151.803 500.339 147.89C496.643 143.867 493.708 139.138 491.533 133.702C489.468 128.267 488.435 122.287 488.435 115.764C488.435 109.133 489.468 103.099 491.533 97.6634C493.708 92.2276 496.643 87.5529 500.339 83.6392C504.144 79.7254 508.493 76.7358 513.385 74.6702C518.277 72.4959 523.441 71.4088 528.877 71.4088C532.791 71.4088 536.487 72.061 539.966 73.3656C543.445 74.5615 546.543 76.2466 549.261 78.4209C549.261 71.898 549.261 65.3207 549.261 58.6891C549.261 52.0575 549.261 45.4803 549.261 38.9574C553.718 38.9574 558.23 38.9574 562.796 38.9574C567.362 38.9574 571.819 38.9574 576.168 38.9574C576.168 58.6348 576.168 78.4752 576.168 98.4787C576.168 118.482 576.168 138.323 576.168 158C571.819 158 567.362 158 562.796 158C558.23 158 553.718 158 549.261 158ZM532.627 136.474C537.846 136.474 542.031 134.572 545.184 130.767C548.337 126.962 549.913 121.961 549.913 115.764C549.913 109.568 548.337 104.621 545.184 100.925C542.031 97.1198 537.846 95.2173 532.627 95.2173C527.3 95.2173 523.061 97.0654 519.908 100.762C516.864 104.458 515.342 109.459 515.342 115.764C515.342 122.07 516.864 127.125 519.908 130.93C523.061 134.626 527.3 136.474 532.627 136.474ZM667.488 154.086C659.987 157.239 652.54 159.196 645.147 159.957C637.755 160.718 630.742 160.283 624.111 158.652C617.588 157.13 611.772 154.467 606.662 150.662C601.553 146.857 597.53 142.019 594.595 136.148C591.768 130.278 590.355 123.483 590.355 115.764C590.355 109.35 591.388 103.48 593.453 98.1526C595.628 92.7168 598.672 87.9877 602.585 83.9653C606.499 79.8341 611.119 76.6814 616.446 74.5071C621.774 72.2241 627.59 71.0826 633.895 71.0826C639.548 71.0826 644.658 72.0067 649.224 73.8548C653.79 75.703 657.758 78.3121 661.128 81.6823C664.498 84.9437 667.216 88.8575 669.282 93.4235C671.347 97.9895 672.652 102.99 673.196 108.426C673.739 113.862 673.413 119.624 672.217 125.712C663.303 125.712 654.334 125.712 645.31 125.712C636.287 125.712 627.318 125.712 618.403 125.712C620.469 129.843 623.893 132.778 628.677 134.518C633.569 136.257 639.331 136.801 645.963 136.148C652.703 135.496 659.878 133.757 667.488 130.93C667.488 134.735 667.488 138.594 667.488 142.508C667.488 146.422 667.488 150.281 667.488 154.086ZM633.243 95.2173C630.09 95.2173 627.155 96.087 624.437 97.8264C621.828 99.5659 619.817 102.229 618.403 105.817C623.296 105.817 628.188 105.817 633.08 105.817C638.081 105.817 643.027 105.817 647.919 105.817C646.615 102.121 644.658 99.4571 642.049 97.8264C639.548 96.087 636.613 95.2173 633.243 95.2173ZM687.445 158C687.445 144.085 687.445 130.06 687.445 115.927C687.445 101.686 687.445 87.6072 687.445 73.6918C691.903 73.6918 696.414 73.6918 700.98 73.6918C705.546 73.6918 710.004 73.6918 714.352 73.6918C714.352 74.4528 714.352 75.2138 714.352 75.9748C714.352 76.7358 714.352 77.4968 714.352 78.2578C717.722 75.8661 721.527 74.0723 725.767 72.8764C730.007 71.6805 734.627 71.3544 739.628 71.898C739.628 76.2466 739.628 80.6495 739.628 85.1068C739.628 89.5641 739.628 93.9671 739.628 98.3156C731.04 97.1198 724.68 97.8808 720.549 100.599C716.418 103.208 714.352 107.502 714.352 113.481C714.352 120.765 714.352 128.158 714.352 135.659C714.352 143.16 714.352 150.607 714.352 158C710.004 158 705.546 158 700.98 158C696.414 158 691.903 158 687.445 158Z" fill="url(#paint4_linear_19_283)"/>
<path d="M275.681 97.8264C275.681 93.804 275.681 89.7815 275.681 85.7591C275.681 81.7367 275.681 77.7142 275.681 73.6918C277.855 73.6918 280.029 73.6918 282.204 73.6918C284.487 73.6918 286.715 73.6918 288.89 73.6918C288.89 73.1482 288.89 72.659 288.89 72.2241C288.89 71.7893 288.89 71.3544 288.89 70.9195C288.89 63.6357 290.357 57.5476 293.293 52.6555C296.337 47.6546 300.305 43.8496 305.197 41.2404C310.198 38.5226 315.633 37.0006 321.504 36.6744C327.483 36.2396 333.408 37.0006 339.279 38.9574C339.279 42.9799 339.279 47.111 339.279 51.3509C339.279 55.5908 339.279 59.7763 339.279 63.9074C332.756 61.7332 327.212 61.2983 322.646 62.6029C318.08 63.9074 315.796 66.734 315.796 71.0826C315.796 71.5175 315.796 71.9523 315.796 72.3872C315.796 72.8221 315.796 73.2569 315.796 73.6918C319.167 73.6918 322.537 73.6918 325.907 73.6918C329.277 73.6918 332.647 73.6918 336.017 73.6918C336.017 77.7142 336.017 81.7367 336.017 85.7591C336.017 89.7815 336.017 93.804 336.017 97.8264C332.647 97.8264 329.277 97.8264 325.907 97.8264C322.537 97.8264 319.167 97.8264 315.796 97.8264C315.796 107.719 315.796 117.721 315.796 127.832C315.796 137.942 315.796 147.998 315.796 158C311.448 158 306.991 158 302.425 158C297.859 158 293.347 158 288.89 158C288.89 147.998 288.89 137.942 288.89 127.832C288.89 117.721 288.89 107.719 288.89 97.8264C286.715 97.8264 284.487 97.8264 282.204 97.8264C280.029 97.8264 277.855 97.8264 275.681 97.8264ZM364.186 64.0705C361.033 64.0705 358.152 63.3095 355.543 61.7875C353.042 60.2655 351.031 58.2543 349.509 55.7538C347.987 53.2534 347.226 50.4812 347.226 47.4372C347.226 44.3932 347.987 41.6753 349.509 39.2836C351.031 36.7831 353.042 34.7719 355.543 33.2499C358.152 31.7279 361.033 30.9669 364.186 30.9669C367.23 30.9669 370.002 31.7279 372.502 33.2499C375.111 34.7719 377.177 36.7831 378.699 39.2836C380.221 41.6753 380.982 44.3932 380.982 47.4372C380.982 50.4812 380.221 53.2534 378.699 55.7538C377.177 58.2543 375.111 60.2655 372.502 61.7875C370.002 63.3095 367.23 64.0705 364.186 64.0705ZM350.651 158C350.651 144.085 350.651 130.06 350.651 115.927C350.651 101.686 350.651 87.6072 350.651 73.6918C355.108 73.6918 359.62 73.6918 364.186 73.6918C368.752 73.6918 373.209 73.6918 377.557 73.6918C377.557 87.6072 377.557 101.686 377.557 115.927C377.557 130.06 377.557 144.085 377.557 158C373.209 158 368.752 158 364.186 158C359.62 158 355.108 158 350.651 158ZM396.336 158C396.336 144.085 396.336 130.06 396.336 115.927C396.336 101.686 396.336 87.6072 396.336 73.6918C400.794 73.6918 405.305 73.6918 409.871 73.6918C414.437 73.6918 418.895 73.6918 423.243 73.6918C423.243 74.4528 423.243 75.1594 423.243 75.8117C423.243 76.464 423.243 77.1706 423.243 77.9316C426.178 75.8661 429.44 74.2897 433.027 73.2026C436.724 72.0067 440.692 71.4088 444.932 71.4088C451.128 71.4088 456.564 72.8221 461.239 75.6486C466.022 78.4752 469.719 82.552 472.328 87.879C475.046 93.0973 476.405 99.4028 476.405 106.795C476.405 115.275 476.405 123.809 476.405 132.398C476.405 140.986 476.405 149.52 476.405 158C472.056 158 467.599 158 463.033 158C458.467 158 453.955 158 449.498 158C449.498 150.173 449.498 142.236 449.498 134.191C449.498 126.147 449.498 118.21 449.498 110.383C449.498 106.034 448.465 102.556 446.399 99.9464C444.442 97.2285 441.29 95.8696 436.941 95.8696C432.593 95.8696 429.222 97.1198 426.831 99.6202C424.439 102.121 423.243 105.708 423.243 110.383C423.243 118.21 423.243 126.147 423.243 134.191C423.243 142.236 423.243 150.173 423.243 158C418.895 158 414.437 158 409.871 158C405.305 158 400.794 158 396.336 158ZM549.261 158C549.261 157.13 549.261 156.315 549.261 155.554C549.261 154.684 549.261 153.869 549.261 153.108C546.543 155.391 543.445 157.13 539.966 158.326C536.596 159.631 532.954 160.283 529.04 160.283C523.495 160.283 518.277 159.196 513.385 157.022C508.493 154.847 504.144 151.803 500.339 147.89C496.643 143.867 493.708 139.138 491.533 133.702C489.468 128.267 488.435 122.287 488.435 115.764C488.435 109.133 489.468 103.099 491.533 97.6634C493.708 92.2276 496.643 87.5529 500.339 83.6392C504.144 79.7254 508.493 76.7358 513.385 74.6702C518.277 72.4959 523.441 71.4088 528.877 71.4088C532.791 71.4088 536.487 72.061 539.966 73.3656C543.445 74.5615 546.543 76.2466 549.261 78.4209C549.261 71.898 549.261 65.3207 549.261 58.6891C549.261 52.0575 549.261 45.4803 549.261 38.9574C553.718 38.9574 558.23 38.9574 562.796 38.9574C567.362 38.9574 571.819 38.9574 576.168 38.9574C576.168 58.6348 576.168 78.4752 576.168 98.4787C576.168 118.482 576.168 138.323 576.168 158C571.819 158 567.362 158 562.796 158C558.23 158 553.718 158 549.261 158ZM532.627 136.474C537.846 136.474 542.031 134.572 545.184 130.767C548.337 126.962 549.913 121.961 549.913 115.764C549.913 109.568 548.337 104.621 545.184 100.925C542.031 97.1198 537.846 95.2173 532.627 95.2173C527.3 95.2173 523.061 97.0654 519.908 100.762C516.864 104.458 515.342 109.459 515.342 115.764C515.342 122.07 516.864 127.125 519.908 130.93C523.061 134.626 527.3 136.474 532.627 136.474ZM667.488 154.086C659.987 157.239 652.54 159.196 645.147 159.957C637.755 160.718 630.742 160.283 624.111 158.652C617.588 157.13 611.772 154.467 606.662 150.662C601.553 146.857 597.53 142.019 594.595 136.148C591.768 130.278 590.355 123.483 590.355 115.764C590.355 109.35 591.388 103.48 593.453 98.1526C595.628 92.7168 598.672 87.9877 602.585 83.9653C606.499 79.8341 611.119 76.6814 616.446 74.5071C621.774 72.2241 627.59 71.0826 633.895 71.0826C639.548 71.0826 644.658 72.0067 649.224 73.8548C653.79 75.703 657.758 78.3121 661.128 81.6823C664.498 84.9437 667.216 88.8575 669.282 93.4235C671.347 97.9895 672.652 102.99 673.196 108.426C673.739 113.862 673.413 119.624 672.217 125.712C663.303 125.712 654.334 125.712 645.31 125.712C636.287 125.712 627.318 125.712 618.403 125.712C620.469 129.843 623.893 132.778 628.677 134.518C633.569 136.257 639.331 136.801 645.963 136.148C652.703 135.496 659.878 133.757 667.488 130.93C667.488 134.735 667.488 138.594 667.488 142.508C667.488 146.422 667.488 150.281 667.488 154.086ZM633.243 95.2173C630.09 95.2173 627.155 96.087 624.437 97.8264C621.828 99.5659 619.817 102.229 618.403 105.817C623.296 105.817 628.188 105.817 633.08 105.817C638.081 105.817 643.027 105.817 647.919 105.817C646.615 102.121 644.658 99.4571 642.049 97.8264C639.548 96.087 636.613 95.2173 633.243 95.2173ZM687.445 158C687.445 144.085 687.445 130.06 687.445 115.927C687.445 101.686 687.445 87.6072 687.445 73.6918C691.903 73.6918 696.414 73.6918 700.98 73.6918C705.546 73.6918 710.004 73.6918 714.352 73.6918C714.352 74.4528 714.352 75.2138 714.352 75.9748C714.352 76.7358 714.352 77.4968 714.352 78.2578C717.722 75.8661 721.527 74.0723 725.767 72.8764C730.007 71.6805 734.627 71.3544 739.628 71.898C739.628 76.2466 739.628 80.6495 739.628 85.1068C739.628 89.5641 739.628 93.9671 739.628 98.3156C731.04 97.1198 724.68 97.8808 720.549 100.599C716.418 103.208 714.352 107.502 714.352 113.481C714.352 120.765 714.352 128.158 714.352 135.659C714.352 143.16 714.352 150.607 714.352 158C710.004 158 705.546 158 700.98 158C696.414 158 691.903 158 687.445 158Z" fill="url(#paint5_linear_19_283)"/>
<defs>
<linearGradient id="paint0_linear_19_283" x1="152.926" y1="14" x2="152.926" y2="164.545" gradientUnits="userSpaceOnUse">
<stop stop-color="white"/>
<stop offset="1" stop-color="#999999"/>
</linearGradient>
<linearGradient id="paint1_linear_19_283" x1="152.926" y1="14" x2="152.926" y2="164.545" gradientUnits="userSpaceOnUse">
<stop stop-color="#6DFF8D"/>
<stop offset="1" stop-color="#0059C1"/>
</linearGradient>
<linearGradient id="paint2_linear_19_283" x1="140" y1="133.107" x2="140" y2="187.636" gradientUnits="userSpaceOnUse">
<stop stop-color="white"/>
<stop offset="1" stop-color="#999999"/>
</linearGradient>
<linearGradient id="paint3_linear_19_283" x1="140" y1="133.107" x2="140" y2="187.636" gradientUnits="userSpaceOnUse">
<stop stop-color="#2589FF" stop-opacity="0.972549"/>
<stop offset="1" stop-color="#0059C1"/>
</linearGradient>
<linearGradient id="paint4_linear_19_283" x1="506.964" y1="1" x2="506.964" y2="204.84" gradientUnits="userSpaceOnUse">
<stop stop-color="white"/>
<stop offset="1" stop-color="#999999"/>
</linearGradient>
<linearGradient id="paint5_linear_19_283" x1="506.964" y1="1" x2="506.964" y2="204.84" gradientUnits="userSpaceOnUse">
<stop stop-color="#6DFF8D"/>
<stop offset="0.745" stop-color="#0059C1"/>
</linearGradient>
</defs>
</svg>
