<svg width="280" height="175" viewBox="0 0 280 175" fill="none" xmlns="http://www.w3.org/2000/svg">
<path d="M228.477 151.182C133.48 113.494 90.5374 102.534 52.191 110.258C53.5773 86.1897 146.382 -16.9065 253.66 3.2265C246.277 16.1222 234.747 28.2783 229.952 39.6515C228.946 42.9929 222.666 62.2121 221.743 66.1868C214.695 111.59 227.648 149.891 228.477 151.182Z" fill="black"/>
<path d="M99.8862 137.554C95.7502 136.292 86.7672 134.951 86.7672 134.951C57.2898 129.252 28.4384 134.067 0.00014833 136.287C10.8544 133.402 23.375 128.755 34.0801 125.349C51.7178 119.737 74.4732 118.722 93.0629 120.618C107.98 122.141 124.019 124.817 138.258 129.394C167.509 138.796 195.302 151.623 224.359 161.681C233.716 164.92 243.386 167.195 253.01 169.46L253.011 169.46C262.22 171.626 280 173.323 280 173.323C280 173.323 260.225 174.273 258.334 174.273C241.758 174.273 224.578 171.642 208.355 168.522C192.295 165.434 176.536 160.19 160.768 155.843L129.395 145.467C124.191 143.449 113.392 140.789 113.392 140.789C108.952 139.399 99.8862 137.554 99.8862 137.554Z" fill="black"/>
</svg>
